<svg width="28" height="18" viewBox="0 0 28 18" fill="none" xmlns="http://www.w3.org/2000/svg">
<g clip-path="url(#clip0_7655_10121)">
<path d="M21.0616 0.411777C20.9201 0.174234 20.6643 0.0155801 20.3724 0.0155801C19.9271 0.0155801 19.5661 0.384456 19.5661 0.839682C19.5661 1.07953 19.6665 1.29546 19.8265 1.4461L25.9041 8.97723L19.8941 16.3653H19.2388H17.2978L22.9775 9.60998C22.9811 9.60582 22.9845 9.60165 22.988 9.59748C23.1474 9.42017 23.2178 9.21247 23.214 9.00774C23.2178 8.80311 23.1474 8.59541 22.9892 8.41766L22.988 8.41799C22.9845 8.41382 22.9811 8.40966 22.9775 8.4056L16.1952 0.424833C16.1937 0.422968 16.1922 0.421103 16.1905 0.419237C16.0502 0.177526 15.7921 0.0155801 15.4972 0.0155801H10.7339C10.2886 0.0155801 9.92766 0.384456 9.92766 0.839682C9.92766 0.977818 9.94612 1.12144 10.02 1.22249L16.3325 9.03835L10.9524 15.6361C10.9204 15.6688 10.4568 16.3441 9.6417 16.3441H3.2163C2.34245 16.3441 1.61781 15.6471 1.61781 14.7211V3.28412C1.61781 2.47812 2.34245 1.65029 3.23605 1.65029H7.23345C7.70467 1.65029 8.03967 1.32135 8.03967 0.839682C8.03967 0.358014 7.70467 0 7.23345 0L3.19687 0.0163482C1.28463 0.0163482 0 1.62845 0 3.26733V14.7211C0 16.4858 1.52196 17.9888 3.19687 17.9888H9.62045C9.9444 17.9888 10.2408 17.9403 10.5076 17.8626C10.5457 17.8515 10.5833 17.8398 10.6201 17.8276C11.5058 17.5342 12.0403 16.9314 12.1438 16.8037L18.1985 9.59078C18.4849 9.25866 18.523 8.777 18.2033 8.41766L18.2021 8.41799C18.1985 8.41382 18.1952 8.40966 18.1917 8.4056L12.4644 1.65029H14.453H15.1083L21.0935 9.00784L14.7951 16.7737C14.7931 16.776 14.797 16.7827 14.8059 16.7931C14.7471 16.9075 14.7136 17.0377 14.7136 17.1759C14.7136 17.631 15.0745 18 15.5197 18H20.2831C20.578 18 20.8359 17.8378 20.9765 17.5962C20.978 17.5944 20.9795 17.5925 20.981 17.5907L27.7634 9.60998C27.7669 9.60582 27.7703 9.60165 27.7738 9.59748C28.0946 9.23847 28.0566 8.75681 27.7703 8.42469L21.0616 0.411777Z" fill="#141413"/>
</g>
<defs>
<clipPath id="clip0_7655_10121">
<rect width="28" height="18" fill="white"/>
</clipPath>
</defs>
</svg>
