<svg width="20" height="20" viewBox="0 0 20 20" fill="none" xmlns="http://www.w3.org/2000/svg">
<path d="M20 10C20 15.5228 15.5228 20 10 20C4.47715 20 0 15.5228 0 10C0 4.47715 4.47715 0 10 0C15.5228 0 20 4.47715 20 10ZM1.81629 10C1.81629 14.5197 5.48026 18.1837 10 18.1837C14.5197 18.1837 18.1837 14.5197 18.1837 10C18.1837 5.48026 14.5197 1.81629 10 1.81629C5.48026 1.81629 1.81629 5.48026 1.81629 10Z" fill="#EEEDF0"/>
<path d="M18.7935 7.69003C19.2786 7.5626 19.5725 7.06416 19.4016 6.59262C19.0586 5.64638 18.5742 4.75567 17.9633 3.95143C17.169 2.90567 16.1765 2.0266 15.0425 1.36441C13.9084 0.702225 12.6551 0.269886 11.354 0.0920831C10.3533 -0.0446559 9.33952 -0.0287954 8.34691 0.137581C7.85225 0.220493 7.56259 0.721392 7.69002 1.20649C7.81745 1.69158 8.31387 1.97618 8.81009 1.90326C9.57023 1.79155 10.3438 1.78721 11.108 1.89165C12.1728 2.03716 13.1986 2.39097 14.1266 2.93288C15.0547 3.4748 15.8669 4.19421 16.517 5.05003C16.9835 5.66425 17.3599 6.3401 17.6362 7.057C17.8166 7.525 18.3084 7.81746 18.7935 7.69003Z" fill="#30D366"/>
</svg>
