<svg width="101" height="100" viewBox="0 0 101 100" fill="none" xmlns="http://www.w3.org/2000/svg">
<rect x="16.5" y="33" width="67" height="33" fill="white"/>
<path d="M71.3334 13.9166C77.6178 17.5452 82.8456 22.7521 86.4993 29.022C90.1529 35.2919 92.1057 42.4073 92.1643 49.6639C92.2229 56.9204 90.3853 64.0664 86.8335 70.3945C83.2816 76.7226 78.1386 82.0134 71.9135 85.743C65.6885 89.4726 58.5974 91.5117 51.3421 91.6586C44.0868 91.8054 36.919 90.0548 30.5482 86.5801C24.1774 83.1055 18.8245 78.0271 15.0195 71.8479C11.2145 65.6687 9.08925 58.6029 8.85421 51.35L8.83337 50L8.85421 48.65C9.08755 41.4541 11.1815 34.4415 14.9319 28.2958C18.6823 22.1501 23.9611 17.081 30.2538 13.5828C36.5464 10.0846 43.6381 8.27661 50.8376 8.33512C58.037 8.39362 65.0984 10.3166 71.3334 13.9166ZM65.9459 38.7208C65.2284 38.0034 64.2738 37.5724 63.2612 37.5088C62.2486 37.4451 61.2476 37.7531 60.4459 38.375L60.0542 38.7208L46.3334 52.4375L40.9459 47.0541L40.5542 46.7083C39.7525 46.0869 38.7516 45.7792 37.7392 45.8431C36.7269 45.907 35.7726 46.3379 35.0553 47.0552C34.338 47.7725 33.907 48.7268 33.8432 49.7391C33.7793 50.7515 34.0869 51.7524 34.7084 52.5541L35.0542 52.9458L43.3875 61.2791L43.7792 61.625C44.5099 62.1919 45.4085 62.4996 46.3334 62.4996C47.2582 62.4996 48.1568 62.1919 48.8875 61.625L49.2792 61.2791L65.9459 44.6125L66.2917 44.2208C66.9136 43.4191 67.2216 42.4181 67.1579 41.4055C67.0942 40.3928 66.6633 39.4383 65.9459 38.7208Z" fill="#30D366"/>
</svg>
