<svg xmlns="http://www.w3.org/2000/svg" xmlns:xlink="http://www.w3.org/1999/xlink" width="205" height="45" viewBox="0 0 205 45">
  <defs>
    <clipPath id="clip-TPAY_LOGO_CLAIM">
      <rect width="205" height="45"/>
    </clipPath>
  </defs>
  <g id="TPAY_LOGO_CLAIM" clip-path="url(#clip-TPAY_LOGO_CLAIM)">
    <g id="Warstwa_1-2" data-name="Warstwa 1-2" transform="translate(-2.8 -57.014)">
      <path id="Path_19" data-name="Path 19" d="M81.754,79.458a12.473,12.473,0,0,1,3.9-3.277,10.663,10.663,0,0,1,5.11-1.208,9.5,9.5,0,0,1,4.35.918,8.444,8.444,0,0,1,3.007,2.533,10.756,10.756,0,0,1,1.74,3.775,18.267,18.267,0,0,1,.556,4.582,21.225,21.225,0,0,1-1.039,6.666,18.051,18.051,0,0,1-2.871,5.505,13.868,13.868,0,0,1-4.35,3.742,11.525,11.525,0,0,1-5.583,1.373,11.238,11.238,0,0,1-5.186-1.107A9.372,9.372,0,0,1,77.7,99.325l-3.007,14.12h-6l7.971-37.622h5.849ZM79.173,92.843a6.554,6.554,0,0,0,1.58,4.607,6.089,6.089,0,0,0,4.742,1.74,6.625,6.625,0,0,0,3.659-1.029A8.845,8.845,0,0,0,91.871,95.4a13.888,13.888,0,0,0,1.706-4,18.742,18.742,0,0,0,.58-4.665,7.621,7.621,0,0,0-1.479-5.056,4.8,4.8,0,0,0-3.843-1.74,7.868,7.868,0,0,0-3.1.6A9.084,9.084,0,0,0,83.1,82.213a9.979,9.979,0,0,0-2,2.533,11.238,11.238,0,0,0-1.189,3.132A29.865,29.865,0,0,0,79.173,92.843Z" transform="translate(-41.956 -11.434)" fill="#072653"/>
      <path id="Path_20" data-name="Path 20" d="M168.777,103.939a8.387,8.387,0,0,1-5.8-1.933,7.037,7.037,0,0,1-2.156-5.559,8.593,8.593,0,0,1,1.261-4.834,9.019,9.019,0,0,1,3.384-3,16.237,16.237,0,0,1,4.834-1.58,42.758,42.758,0,0,1,5.689-.58l5-.213.159-.841a10.837,10.837,0,0,0,.159-1.794,3.868,3.868,0,0,0-1.107-2.948,5.151,5.151,0,0,0-3.635-1.054,9.638,9.638,0,0,0-4.321.764,5.087,5.087,0,0,0-2.267,2.978l-5.428-.58a9.9,9.9,0,0,1,4.428-5.979,16.524,16.524,0,0,1,8.217-1.765q4.8,0,7.323,2.185a7.826,7.826,0,0,1,2.581,6.139,12.009,12.009,0,0,1-.106,1.527c-.072.527-.159,1.073-.266,1.634l-3.553,16.749h-5.7l.74-3.582a18.56,18.56,0,0,1-4.007,3.084A11.025,11.025,0,0,1,168.777,103.939Zm11.33-13.709-4.056.208a28.826,28.826,0,0,0-4.428.556,8.7,8.7,0,0,0-2.847,1.078,3.949,3.949,0,0,0-1.5,1.663,5.288,5.288,0,0,0-.449,2.238,3.252,3.252,0,0,0,.967,2.345,3.94,3.94,0,0,0,2.9.967A9.629,9.629,0,0,0,173.8,98.8a9.743,9.743,0,0,0,2.658-1.368,8.161,8.161,0,0,0,2.006-2.107,7.976,7.976,0,0,0,1.131-2.77Z" transform="translate(-100.619 -11.465)" fill="#072653"/>
      <path id="Path_21" data-name="Path 21" d="M234.3,77.321h6.637l3.48,19.761,10.968-19.761h6.849L244.57,106.406q-1.261,2.107-2.344,3.717a14.055,14.055,0,0,1-2.262,2.658,8.64,8.64,0,0,1-2.611,1.6,9.226,9.226,0,0,1-3.383.556,11.443,11.443,0,0,1-2.417-.237,13.707,13.707,0,0,1-2.132-.657L231,109.514c.387.14.826.271,1.32.4a6.581,6.581,0,0,0,1.58.184,3.684,3.684,0,0,0,2.552-.87,12.574,12.574,0,0,0,2.19-2.924l1.58-2.688Z" transform="translate(-144.306 -12.932)" fill="#072653"/>
      <path id="Path_22" data-name="Path 22" d="M18.955,83.043c-.073.348-.13.657-.184.919a4.166,4.166,0,0,0-.082.817,2.5,2.5,0,0,0,.764,2.107,3.345,3.345,0,0,0,2.083.58,11,11,0,0,0,3.268-.483l.894,4.481a17.449,17.449,0,0,1-5.535.836,8.478,8.478,0,0,1-5.583-1.634,6.039,6.039,0,0,1-1.933-4.95,11.455,11.455,0,0,1,.368-2.9l2.9-13.7H2.8l1-4.742H16.9l1.581-7.362h6L22.9,64.389h7.347l-1,4.742H21.9Z" transform="translate(0)" fill="#072653"/>
      <path id="Path_23" data-name="Path 23" d="M352.331,86.307l5.659-7.165h-5.558V77.808h7.579v1.223l-5.654,7.185H360.3l-.207,1.319h-7.761Z" transform="translate(-222.572 -13.242)" fill="#42db74"/>
      <path id="Path_24" data-name="Path 24" d="M384.231,85.7a4.8,4.8,0,0,1-1.334,1.1,4.007,4.007,0,0,1-2.021.46,4.659,4.659,0,0,1-1.344-.177,2.912,2.912,0,0,1-1.056-.546,2.458,2.458,0,0,1-.682-.91,3.03,3.03,0,0,1-.247-1.278,2.8,2.8,0,0,1,.424-1.617,2.953,2.953,0,0,1,1.127-.98,5.6,5.6,0,0,1,1.592-.505,14.01,14.01,0,0,1,1.819-.187L384.186,81v-.379a2.489,2.489,0,0,0-.53-1.783,2.289,2.289,0,0,0-1.708-.546,3,3,0,0,0-1.713.384,1.779,1.779,0,0,0-.712,1.061l-1.486-.167a2.79,2.79,0,0,1,1.268-1.956A5.143,5.143,0,0,1,382.013,77a5.359,5.359,0,0,1,1.778.253,2.907,2.907,0,0,1,1.173.722,2.7,2.7,0,0,1,.646,1.152,5.551,5.551,0,0,1,.2,1.561v6.321h-1.581Zm-.036-3.537-1.561.056a9.589,9.589,0,0,0-1.657.187,3.31,3.31,0,0,0-1.041.4,1.445,1.445,0,0,0-.546.632,2.213,2.213,0,0,0-.162.864,1.6,1.6,0,0,0,.445,1.178,2.022,2.022,0,0,0,1.455.44,3.311,3.311,0,0,0,2.259-.728,2.481,2.481,0,0,0,.808-1.956Z" transform="translate(-238.626 -12.725)" fill="#42db74"/>
      <path id="Path_25" data-name="Path 25" d="M406.786,77.808h1.632v6.129a3.193,3.193,0,0,0,.445,1.92,1.716,1.716,0,0,0,1.44.561,2.884,2.884,0,0,0,1.971-.788,3.231,3.231,0,0,0,.718-.874,2.567,2.567,0,0,0,.242-1.192V77.808h1.637V87.53h-1.617V86.014a4.779,4.779,0,0,1-1.541,1.374,3.816,3.816,0,0,1-1.788.43,2.953,2.953,0,0,1-2.4-.89,4.125,4.125,0,0,1-.743-2.683Z" transform="translate(-257.24 -13.242)" fill="#42db74"/>
      <path id="Path_26" data-name="Path 26" d="M434.962,72.356h-1.516v-1.3h1.516v-.844a3.532,3.532,0,0,1,.232-1.354,2.587,2.587,0,0,1,.641-.93,2.531,2.531,0,0,1,.94-.546,3.534,3.534,0,0,1,1.137-.177,7.257,7.257,0,0,1,.829.045,4.838,4.838,0,0,1,.824.177l-.263,1.278a3.121,3.121,0,0,0-.571-.121,4.788,4.788,0,0,0-.535-.031,1.834,1.834,0,0,0-1.127.349,1.515,1.515,0,0,0-.47,1.268v.884h2.461v1.3H436.6V80.78h-1.637Z" transform="translate(-274.224 -6.492)" fill="#42db74"/>
      <path id="Path_27" data-name="Path 27" d="M458.154,85.7a4.8,4.8,0,0,1-1.334,1.1,4.008,4.008,0,0,1-2.021.46,4.657,4.657,0,0,1-1.344-.177,2.909,2.909,0,0,1-1.056-.546,2.451,2.451,0,0,1-.682-.91,3.031,3.031,0,0,1-.248-1.278,2.805,2.805,0,0,1,.425-1.617,2.947,2.947,0,0,1,1.127-.98,5.63,5.63,0,0,1,1.587-.505,14.216,14.216,0,0,1,1.824-.187L458.108,81v-.379a2.489,2.489,0,0,0-.531-1.783,2.288,2.288,0,0,0-1.708-.546,3,3,0,0,0-1.713.384,1.777,1.777,0,0,0-.713,1.061l-1.486-.167a2.79,2.79,0,0,1,1.268-1.956A5.143,5.143,0,0,1,455.935,77a5.36,5.36,0,0,1,1.779.253,2.9,2.9,0,0,1,1.172.722,2.691,2.691,0,0,1,.647,1.152,5.727,5.727,0,0,1,.192,1.566v6.316h-1.576Zm-.035-3.537-1.562.056a9.583,9.583,0,0,0-1.657.187,3.257,3.257,0,0,0-1.041.4,1.441,1.441,0,0,0-.546.632,2.211,2.211,0,0,0-.157.844,1.578,1.578,0,0,0,.445,1.177,2.021,2.021,0,0,0,1.455.439,3.31,3.31,0,0,0,2.254-.707,2.482,2.482,0,0,0,.808-1.956Z" transform="translate(-285.698 -12.725)" fill="#42db74"/>
      <path id="Path_28" data-name="Path 28" d="M480.937,77.267h1.6v1.486a4.315,4.315,0,0,1,1.576-1.369,4.136,4.136,0,0,1,1.824-.414,3.125,3.125,0,0,1,2.456.9,3.9,3.9,0,0,1,.8,2.653v6.468h-1.6V80.84a2.874,2.874,0,0,0-.505-1.9,1.881,1.881,0,0,0-1.516-.556,3.215,3.215,0,0,0-1.081.187,2.643,2.643,0,0,0-.94.6,3.124,3.124,0,0,0-.712.874,2.526,2.526,0,0,0-.248,1.192v5.755h-1.632Z" transform="translate(-304.465 -12.701)" fill="#42db74"/>
      <path id="Path_29" data-name="Path 29" d="M518,84.265a3.478,3.478,0,0,1-1.253,2.218,4.5,4.5,0,0,1-2.885.808,4.293,4.293,0,0,1-3.406-1.344,5.487,5.487,0,0,1-1.182-3.749,6.8,6.8,0,0,1,.339-2.238,4.5,4.5,0,0,1,.95-1.632,4.121,4.121,0,0,1,1.455-1.011,5.261,5.261,0,0,1,3.78,0,3.536,3.536,0,0,1,1.323,1.011,4.123,4.123,0,0,1,.773,1.516,6.8,6.8,0,0,1,.253,1.895v.829H510.93a4.548,4.548,0,0,0,.2,1.364,3.377,3.377,0,0,0,.561,1.061,2.678,2.678,0,0,0,.915.722,2.847,2.847,0,0,0,1.258.263,2.8,2.8,0,0,0,1.783-.46,2.316,2.316,0,0,0,.773-1.253Zm-1.481-2.951a4.81,4.81,0,0,0-.151-1.258,2.678,2.678,0,0,0-.47-.97,2.149,2.149,0,0,0-.829-.627,2.984,2.984,0,0,0-1.223-.227,2.612,2.612,0,0,0-2.021.788,3.8,3.8,0,0,0-.854,2.294Z" transform="translate(-322.507 -12.706)" fill="#42db74"/>
      <path id="Path_30" data-name="Path 30" d="M354.877,124.424h1.617v1.385a4.225,4.225,0,0,1,1.4-1.258,3.888,3.888,0,0,1,1.87-.435,4.086,4.086,0,0,1,1.814.379,3.538,3.538,0,0,1,1.3,1.051,4.663,4.663,0,0,1,.773,1.607,7.944,7.944,0,0,1,.253,2.057,7.256,7.256,0,0,1-.3,2.172,4.642,4.642,0,0,1-.864,1.647,3.807,3.807,0,0,1-1.359,1.041,4.386,4.386,0,0,1-3.426.04,3.5,3.5,0,0,1-1.435-1.177v4.851h-1.637Zm1.617,5.129a5.179,5.179,0,0,0,.217,1.607,3.034,3.034,0,0,0,.581,1.1,2.215,2.215,0,0,0,.915.621,3.233,3.233,0,0,0,1.147.2,3.028,3.028,0,0,0,1.117-.207,2.193,2.193,0,0,0,.894-.667,3.535,3.535,0,0,0,.591-1.192,6.506,6.506,0,0,0,.217-1.789,5.866,5.866,0,0,0-.238-1.794,3.248,3.248,0,0,0-.6-1.147,2.185,2.185,0,0,0-.854-.621,2.657,2.657,0,0,0-1.01-.187,3.146,3.146,0,0,0-1.187.218,2.617,2.617,0,0,0-.935.621,2.9,2.9,0,0,0-.627,1.071,4.518,4.518,0,0,0-.227,1.516Z" transform="translate(-224.193 -42.728)" fill="#42db74"/>
      <path id="Path_31" data-name="Path 31" d="M385.177,122.1l-1.713,1.2v-1.425l1.713-1.2v-5.907h1.637v4.886l1.708-1.223v1.45l-1.708,1.2v7.1h-1.637Z" transform="translate(-242.396 -36.777)" fill="#42db74"/>
      <path id="Path_32" data-name="Path 32" d="M406.484,132.8a4.891,4.891,0,0,1-1.334,1.086,4.073,4.073,0,0,1-2.021.46,4.725,4.725,0,0,1-1.344-.182,2.885,2.885,0,0,1-1.051-.54,2.525,2.525,0,0,1-.687-.9,3.117,3.117,0,0,1-.243-1.278,2.816,2.816,0,0,1,.424-1.617,2.9,2.9,0,0,1,1.132-1,5.615,5.615,0,0,1,1.587-.505,14.22,14.22,0,0,1,1.824-.187l1.673-.056v-.364a2.528,2.528,0,0,0-.505-1.784,2.289,2.289,0,0,0-1.708-.546,3.029,3.029,0,0,0-1.713.384,1.773,1.773,0,0,0-.712,1.066l-1.486-.172a2.767,2.767,0,0,1,1.243-1.945,5.133,5.133,0,0,1,2.708-.612,5.447,5.447,0,0,1,1.774.253,2.99,2.99,0,0,1,1.177.728,2.731,2.731,0,0,1,.647,1.162,5.735,5.735,0,0,1,.2,1.561v6.316h-1.576Zm-.04-3.537-1.562.06a9.152,9.152,0,0,0-1.652.187,3.106,3.106,0,0,0-1.041.4,1.387,1.387,0,0,0-.546.632,2.179,2.179,0,0,0-.162.864,1.591,1.591,0,0,0,.44,1.172,2.021,2.021,0,0,0,1.46.445,3.288,3.288,0,0,0,2.253-.717,2.466,2.466,0,0,0,.809-1.956Z" transform="translate(-252.8 -42.727)" fill="#42db74"/>
      <path id="Path_33" data-name="Path 33" d="M427.95,121.6h-1.516v-1.293h1.516v-2.658h1.632V120.3h2.582V121.6h-2.577v5.7a1.893,1.893,0,0,0,.318,1.147,1.141,1.141,0,0,0,.98.43,4.33,4.33,0,0,0,.722-.056,3.205,3.205,0,0,0,.576-.151l.278,1.263a5.459,5.459,0,0,1-1.859.3,3.119,3.119,0,0,1-1.334-.243,2.023,2.023,0,0,1-.808-.7,2.726,2.726,0,0,1-.4-1.072,8.07,8.07,0,0,1-.1-1.354Z" transform="translate(-269.759 -38.611)" fill="#42db74"/>
      <path id="Path_34" data-name="Path 34" d="M447.189,124.417h1.617V125.9a4.282,4.282,0,0,1,1.577-1.374,4.158,4.158,0,0,1,1.824-.414,3.124,3.124,0,0,1,2.456.9,3.892,3.892,0,0,1,.823,2.648v6.468h-1.637v-6.149a2.874,2.874,0,0,0-.505-1.9,1.9,1.9,0,0,0-1.516-.556,3.351,3.351,0,0,0-1.081.187,2.709,2.709,0,0,0-.965.6,3.187,3.187,0,0,0-.713.874,2.569,2.569,0,0,0-.242,1.2v5.755h-1.637Z" transform="translate(-282.975 -42.722)" fill="#42db74"/>
      <path id="Path_35" data-name="Path 35" d="M480.223,134.462a5.143,5.143,0,0,1-1.976-.359,4.043,4.043,0,0,1-1.465-1.011,4.367,4.367,0,0,1-.92-1.617,6.631,6.631,0,0,1-.323-2.142,6.476,6.476,0,0,1,.338-2.142,4.69,4.69,0,0,1,.96-1.637,4.179,4.179,0,0,1,1.516-1.041,4.914,4.914,0,0,1,1.946-.369,5.087,5.087,0,0,1,1.955.359,4.11,4.11,0,0,1,1.475,1.011,4.512,4.512,0,0,1,.925,1.617,7.258,7.258,0,0,1,0,4.285,4.666,4.666,0,0,1-.94,1.637,4.045,4.045,0,0,1-1.516,1.041A5.107,5.107,0,0,1,480.223,134.462Zm0-1.354a2.993,2.993,0,0,0,1.354-.283,2.465,2.465,0,0,0,.93-.788,3.413,3.413,0,0,0,.541-1.213,6.752,6.752,0,0,0,.167-1.551,6.572,6.572,0,0,0-.167-1.516,3.348,3.348,0,0,0-.541-1.192,2.524,2.524,0,0,0-.93-.778,3.359,3.359,0,0,0-2.7,0,2.586,2.586,0,0,0-.92.778,3.347,3.347,0,0,0-.535,1.192,7.229,7.229,0,0,0,0,3.087,3.534,3.534,0,0,0,.505,1.2,2.419,2.419,0,0,0,.924.788,2.988,2.988,0,0,0,1.385.273Z" transform="translate(-301.027 -42.747)" fill="#42db74"/>
      <path id="Path_36" data-name="Path 36" d="M507.385,124.721a1.882,1.882,0,0,0,.854,1.42,3.647,3.647,0,0,0,1.87.4,2.84,2.84,0,0,0,1.758-.42,1.379,1.379,0,0,0,.505-1.122,2.067,2.067,0,0,0-.066-.536,1.011,1.011,0,0,0-.253-.45,1.7,1.7,0,0,0-.505-.349,3.715,3.715,0,0,0-.884-.242l-1.243-.192a8.575,8.575,0,0,1-1.445-.339,3.471,3.471,0,0,1-1.051-.536,2.021,2.021,0,0,1-.652-.808,2.826,2.826,0,0,1-.217-1.152,2.45,2.45,0,0,1,.293-1.2,2.679,2.679,0,0,1,.808-.894,3.84,3.84,0,0,1,1.223-.566,5.668,5.668,0,0,1,1.516-.2,6.4,6.4,0,0,1,1.758.207,3.391,3.391,0,0,1,1.157.566,2.527,2.527,0,0,1,.692.844,4.627,4.627,0,0,1,.379,1.01l-1.486.243a3.708,3.708,0,0,0-.3-.7,1.507,1.507,0,0,0-.45-.505,2.093,2.093,0,0,0-.687-.3,4.294,4.294,0,0,0-1.01-.1,4.424,4.424,0,0,0-1.127.121,2.132,2.132,0,0,0-.723.328,1.157,1.157,0,0,0-.384.46,1.3,1.3,0,0,0-.116.536,1.74,1.74,0,0,0,.075.535.917.917,0,0,0,.308.465,1.78,1.78,0,0,0,.566.313,5.1,5.1,0,0,0,.92.222l1.41.227a4.71,4.71,0,0,1,2.451.975,3.032,3.032,0,0,1,.505,3.168,2.525,2.525,0,0,1-.733.9,3.638,3.638,0,0,1-1.223.6,6.176,6.176,0,0,1-1.708.217,7.655,7.655,0,0,1-1.647-.172,4.135,4.135,0,0,1-1.344-.535,2.819,2.819,0,0,1-.94-.965,3.323,3.323,0,0,1-.415-1.471Zm3.456-10.939h2.022l-2.527,2.668h-1.617Z" transform="translate(-320.312 -36.149)" fill="#42db74"/>
      <path id="Path_37" data-name="Path 37" d="M541.76,130.883a4.316,4.316,0,0,1-1.279,2.633,4.137,4.137,0,0,1-2.915.96,5.083,5.083,0,0,1-1.966-.359,3.755,3.755,0,0,1-1.425-1.011,4.4,4.4,0,0,1-.864-1.617,7.142,7.142,0,0,1-.293-2.133,6.677,6.677,0,0,1,.318-2.122,4.608,4.608,0,0,1,.92-1.637,4.165,4.165,0,0,1,1.47-1.051,4.817,4.817,0,0,1,1.955-.379,3.583,3.583,0,0,1,3.926,3.178l-1.637.3a4.7,4.7,0,0,0-.253-.864,2.111,2.111,0,0,0-.44-.687,1.888,1.888,0,0,0-.687-.45,2.628,2.628,0,0,0-.97-.162,2.728,2.728,0,0,0-1.314.293,2.414,2.414,0,0,0-.895.809,3.541,3.541,0,0,0-.505,1.213,6.586,6.586,0,0,0-.162,1.481,6.884,6.884,0,0,0,.152,1.486,3.54,3.54,0,0,0,.505,1.212,2.376,2.376,0,0,0,.884.819,2.7,2.7,0,0,0,1.334.3,2.339,2.339,0,0,0,1.758-.6,3.063,3.063,0,0,0,.728-1.617Z" transform="translate(-337.628 -42.75)" fill="#42db74"/>
      <path id="Path_38" data-name="Path 38" d="M562.316,114.769h1.748v1.895h-1.748Zm.056,3.7h1.637v9.717h-1.637Z" transform="translate(-356.285 -36.777)" fill="#42db74"/>
    </g>
  </g>
</svg>
