<svg width="116px" height="45px" viewBox="0 0 116 45" version="1.1" xmlns="http://www.w3.org/2000/svg" xmlns:xlink="http://www.w3.org/1999/xlink">
    <g stroke="none" stroke-width="1" fill="none" fill-rule="evenodd">
        <g transform="translate(0.000000, -0.002000)" fill="#072653" fill-rule="nonzero">
            <path d="M36.998,11.012 C38.0587279,9.66301007 39.3864118,8.54741517 40.898,7.735 C42.4740107,6.91268062 44.2306018,6.49742386 46.008,6.527 C47.5101988,6.48463156 49.0010188,6.799246 50.358,7.445 C51.5456776,8.04096843 52.5759363,8.9088252 53.365,9.978 C54.1849401,11.1112253 54.7759748,12.3934987 55.105,13.753 C55.4833233,15.250681 55.6701476,16.7903016 55.661,18.335 C55.6722778,20.5981831 55.3215145,22.8486049 54.622,25.001 C53.990127,26.9880439 53.0187618,28.8505885 51.751,30.506 C50.5777267,32.0429505 49.0960147,33.3175634 47.401,34.248 C45.6858712,35.1699596 43.765106,35.6423241 41.818,35.621 C40.0257776,35.6709723 38.2476108,35.291406 36.632,34.514 C35.0856811,33.6727385 33.8075551,32.4129804 32.944,30.879 L29.937,44.999 L23.937,44.999 L31.908,7.377 L37.757,7.377 L36.998,11.012 Z M34.417,24.397 C34.3323397,26.078609 34.8981107,27.7282969 35.997,29.004 C37.2512017,30.2431909 38.9809651,30.8778995 40.739,30.744 C42.0329923,30.7657503 43.30502,30.4080251 44.398,29.715 C45.4965466,29.0067256 46.4244632,28.063782 47.115,26.954 C47.8901805,25.7185216 48.4659032,24.3686441 48.821,22.954 C49.2093546,21.4295051 49.4042204,19.8621795 49.401,18.289 C49.5246696,16.4814404 49.0003231,14.6889482 47.922,13.233 C46.9781756,12.0910015 45.5598831,11.4488394 44.079,11.493 C43.0157392,11.48147 41.9611736,11.6855795 40.979,12.093 C40.0106488,12.4947659 39.119154,13.0611273 38.344,13.767 C37.5443085,14.4972197 36.8688093,15.3527394 36.344,16.3 C35.7934083,17.27873 35.3926228,18.3344577 35.155,19.432 C34.7701077,21.0633578 34.5232359,22.7242226 34.417,24.397 L34.417,24.397 Z" id="Path_19"></path>
            <path d="M65.358,35.462 C63.2503222,35.5703573 61.1792677,34.8801248 59.558,33.529 C58.0510309,32.0870716 57.2613401,30.0509441 57.402,27.97 C57.3343258,26.2693426 57.7732106,24.5868929 58.663,23.136 C59.5179148,21.8648366 60.6825256,20.8323802 62.047,20.136 C63.5653387,19.3586899 65.1966777,18.8254843 66.881,18.556 C68.7622659,18.2359326 70.6628486,18.0421661 72.57,17.976 L77.57,17.763 L77.729,16.922 C77.8316859,16.3294476 77.8848696,15.7293759 77.888,15.128 C77.9538049,14.0328051 77.5514043,12.9611909 76.781,12.18 C75.7469815,11.3801287 74.4475154,11.0033372 73.146,11.126 C71.6660823,11.0450376 70.1874299,11.3064795 68.825,11.89 C67.718351,12.5585113 66.90777,13.6233152 66.558,14.868 L61.13,14.288 C61.7724749,11.7950818 63.3607576,9.65046975 65.558,8.309 C68.0991028,7.02230406 70.9296583,6.41430474 73.775,6.544 C76.975,6.544 79.416,7.27233333 81.098,8.729 C82.829507,10.2889446 83.775675,12.5394388 83.679,14.868 C83.6761744,15.3787362 83.6407691,15.888772 83.573,16.395 C83.501,16.922 83.414,17.468 83.307,18.029 L79.754,34.778 L74.054,34.778 L74.794,31.196 C73.6052746,32.4019796 72.2570999,33.4396065 70.787,34.28 C69.1079177,35.1310185 67.2388995,35.5379405 65.358,35.462 Z M76.688,21.753 L72.632,21.961 C71.1438498,22.0316278 69.6634143,22.2175181 68.204,22.517 C67.199019,22.7062158 66.2352679,23.0711346 65.357,23.595 C64.7069968,23.9929686 64.1860442,24.5705314 63.857,25.258 C63.5461905,25.9624166 63.3929543,26.7262085 63.408,27.496 C63.3996285,28.3763349 63.748538,29.2224494 64.375,29.841 C65.1721291,30.5404896 66.2175862,30.8890954 67.275,30.808 C68.3299112,30.8175718 69.3792255,30.653722 70.381,30.323 C71.3320969,30.0064471 72.2286475,29.545017 73.039,28.955 C73.828463,28.3784791 74.5079232,27.6648088 75.045,26.848 C75.5933581,26.0042776 75.9771087,25.0644108 76.176,24.078 L76.688,21.753 Z" id="Path_20"></path>
            <path d="M87.194,7.377 L93.831,7.377 L97.311,27.138 L108.279,7.377 L115.128,7.377 L97.464,36.462 C96.6233333,37.8666667 95.842,39.1056667 95.12,40.179 C94.4793641,41.1555411 93.7195069,42.0484237 92.858,42.837 C92.0898767,43.5215437 91.2056583,44.0633857 90.247,44.437 C89.1639747,44.8320664 88.0165001,45.0206552 86.864,44.993 C86.0522073,44.9999606 85.2419787,44.9205133 84.447,44.756 C83.7196622,44.5952935 83.0066344,44.3755659 82.315,44.099 L83.894,39.57 C84.281,39.71 84.72,39.841 85.214,39.97 C85.7312898,40.0949915 86.261831,40.1567761 86.794,40.154 C87.7240397,40.196892 88.6358285,39.8860549 89.346,39.284 C90.2144504,38.4211415 90.9522353,37.4360808 91.536,36.36 L93.116,33.672 L87.194,7.377 Z" id="Path_21"></path>
            <path d="M16.155,26.031 C16.082,26.379 16.025,26.688 15.971,26.95 C15.9168299,27.2189687 15.8893632,27.4926309 15.889,27.767 C15.7969468,28.5505392 16.0801446,29.3315572 16.653,29.874 C17.2639773,30.2926024 17.9966039,30.4965982 18.736,30.454 C19.8434361,30.4584238 20.9451908,30.295588 22.004,29.971 L22.898,34.452 C21.1100134,35.0267246 19.2409676,35.3090231 17.363,35.288 C15.3675315,35.4188256 13.3900479,34.8400673 11.78,33.654 C10.405319,32.391389 9.69173833,30.5640614 9.847,28.704 C9.84531298,27.7255841 9.96898643,26.7509835 10.215,25.804 L13.115,12.104 L2.66453526e-15,12.104 L1,7.362 L14.1,7.362 L15.681,0 L21.681,0 L20.1,7.377 L27.447,7.377 L26.447,12.119 L19.1,12.119 L16.155,26.031 Z" id="Path_22"></path>
        </g>
    </g>
</svg>