<svg id="Warstwa_2" data-name="Warstwa 2" xmlns="http://www.w3.org/2000/svg" width="38.375" height="15" viewBox="0 0 38.375 15">
    <g id="Warstwa_1" data-name="Warstwa 1">
        <path id="Path_9" data-name="Path 9" d="M53.875,14.988a4.165,4.165,0,0,1,1.3-1.092,3.57,3.57,0,0,1,1.707-.4,3.18,3.18,0,0,1,1.453.306,2.819,2.819,0,0,1,1,.844,3.578,3.578,0,0,1,.581,1.258,6.068,6.068,0,0,1,.186,1.527,7.053,7.053,0,0,1-.347,2.221,6.008,6.008,0,0,1-.959,1.835A4.628,4.628,0,0,1,57.35,22.73a3.858,3.858,0,0,1-1.865.457,3.763,3.763,0,0,1-1.733-.369,3.127,3.127,0,0,1-1.232-1.211l-1,4.7H49.51l2.663-12.536h1.954Zm-.862,4.46a2.18,2.18,0,0,0,.528,1.535,2.037,2.037,0,0,0,1.584.58,2.218,2.218,0,0,0,1.222-.343,2.95,2.95,0,0,0,.908-.921,4.619,4.619,0,0,0,.57-1.334,6.229,6.229,0,0,0,.194-1.554,2.535,2.535,0,0,0-.494-1.685,1.6,1.6,0,0,0-1.284-.58,2.635,2.635,0,0,0-1.037.2,3.037,3.037,0,0,0-.88.56,3.329,3.329,0,0,0-.669.844,3.735,3.735,0,0,0-.4,1.044,9.933,9.933,0,0,0-.245,1.654Z" transform="translate(-41.54 -11.313)" fill="#052554"/>
        <path id="Path_10" data-name="Path 10" d="M121.4,23.158a2.808,2.808,0,0,1-1.938-.644,2.338,2.338,0,0,1-.72-1.851,2.853,2.853,0,0,1,.421-1.609,3.008,3.008,0,0,1,1.13-1,5.438,5.438,0,0,1,1.615-.526,14.336,14.336,0,0,1,1.9-.193l1.671-.071.053-.28a3.589,3.589,0,0,0,.053-.6,1.285,1.285,0,0,0-.37-.982A1.725,1.725,0,0,0,124,15.056a3.23,3.23,0,0,0-1.444.254,1.694,1.694,0,0,0-.757.991l-1.814-.193a3.3,3.3,0,0,1,1.479-1.991,5.536,5.536,0,0,1,2.745-.587,3.647,3.647,0,0,1,2.447.727,2.6,2.6,0,0,1,.862,2.044,3.981,3.981,0,0,1-.036.509c-.024.175-.053.357-.089.544l-1.187,5.576H124.3l.247-1.192a6.2,6.2,0,0,1-1.339,1.027A3.694,3.694,0,0,1,121.4,23.158Zm3.785-4.564-1.355.069a9.662,9.662,0,0,0-1.479.185,2.913,2.913,0,0,0-.951.359,1.316,1.316,0,0,0-.5.554,1.755,1.755,0,0,0-.15.745,1.081,1.081,0,0,0,.323.78,1.319,1.319,0,0,0,.969.322,3.215,3.215,0,0,0,1.927-.616,2.722,2.722,0,0,0,.67-.7,2.65,2.65,0,0,0,.378-.922Z" transform="translate(-99.618 -11.345)" fill="#052554"/>
        <path id="Path_11" data-name="Path 11" d="M171.919,15.26h2.217l1.163,6.6,3.664-6.6h2.288l-5.9,9.717q-.421.7-.783,1.242a4.691,4.691,0,0,1-.756.888,2.886,2.886,0,0,1-.872.536,3.081,3.081,0,0,1-1.13.186A3.826,3.826,0,0,1,171,27.75a4.582,4.582,0,0,1-.712-.22l.528-1.515c.129.047.276.09.441.132a2.193,2.193,0,0,0,.528.061,1.231,1.231,0,0,0,.853-.291,4.2,4.2,0,0,0,.732-.977l.528-.9Z" transform="translate(-142.877 -12.83)" fill="#052554"/>
        <path id="Path_12" data-name="Path 12" d="M5.4,8.7c-.024.116-.044.22-.061.307a1.384,1.384,0,0,0-.027.273.834.834,0,0,0,.255.7,1.117,1.117,0,0,0,.7.194,3.676,3.676,0,0,0,1.092-.161l.3,1.5a5.827,5.827,0,0,1-1.849.279,2.832,2.832,0,0,1-1.865-.546A2.017,2.017,0,0,1,3.29,9.589a3.832,3.832,0,0,1,.123-.969l.969-4.577H0L.334,2.459H4.711L5.239,0H7.244L6.716,2.464H9.171L8.837,4.049H6.382Z" fill="#052554"/>
    </g>
</svg>
