<svg width="101" height="100" viewBox="0 0 101 100" fill="none" xmlns="http://www.w3.org/2000/svg">
<rect x="66.5" y="16" width="67" height="33" transform="rotate(90 66.5 16)" fill="white"/>
<path d="M50.4999 8.33337C73.5124 8.33337 92.1666 26.9875 92.1666 50C92.1752 60.9395 87.8814 71.4436 80.212 79.2444C72.5426 87.0452 62.113 91.517 51.175 91.6942C40.237 91.8714 29.668 87.7399 21.7499 80.1917C13.8318 72.6435 9.19987 62.284 8.85409 51.35L8.83325 50L8.84992 48.8334C9.46659 26.3625 27.8749 8.33337 50.4999 8.33337ZM50.5416 62.5L50.0124 62.5292C48.9997 62.6497 48.0664 63.1374 47.3891 63.8999C46.7119 64.6624 46.3379 65.6469 46.3379 66.6667C46.3379 67.6866 46.7119 68.671 47.3891 69.4335C48.0664 70.1961 48.9997 70.6837 50.0124 70.8042L50.4999 70.8334L51.0291 70.8042C52.0418 70.6837 52.9752 70.1961 53.6524 69.4335C54.3296 68.671 54.7036 67.6866 54.7036 66.6667C54.7036 65.6469 54.3296 64.6624 53.6524 63.8999C52.9752 63.1374 52.0418 62.6497 51.0291 62.5292L50.5416 62.5ZM50.4999 29.1667C49.4794 29.1668 48.4943 29.5415 47.7317 30.2197C46.9691 30.8979 46.4818 31.8323 46.3624 32.8459L46.3333 33.3334V50L46.3624 50.4875C46.4829 51.5002 46.9706 52.4336 47.7331 53.1108C48.4956 53.788 49.4801 54.1621 50.4999 54.1621C51.5198 54.1621 52.5042 53.788 53.2667 53.1108C54.0293 52.4336 54.517 51.5002 54.6374 50.4875L54.6666 50V33.3334L54.6374 32.8459C54.518 31.8323 54.0308 30.8979 53.2681 30.2197C52.5055 29.5415 51.5205 29.1668 50.4999 29.1667Z" fill="#E82B2B"/>
</svg>
